<svg xmlns="http://www.w3.org/2000/svg" xmlns:xlink="http://www.w3.org/1999/xlink" width="2938pt" height="348pt" viewBox="0.00 0.00 2938.00 348.00">
<g id="graph0" class="graph" transform="scale(1 1) rotate(0) translate(4 344)">
<title>VMAFNet3D</title>
<polygon fill="white" stroke="none" points="-4,4 -4,-344 2934.48,-344 2934.48,4 -4,4"/>
<g id="clust1" class="cluster">
<title>cluster_ref</title>
<path fill="none" stroke="#b3b3b3" d="M130.48,-174C130.48,-174 835.68,-174 835.68,-174 841.68,-174 847.68,-180 847.68,-186 847.68,-186 847.68,-320 847.68,-320 847.68,-326 841.68,-332 835.68,-332 835.68,-332 130.48,-332 130.48,-332 124.48,-332 118.48,-326 118.48,-320 118.48,-320 118.48,-186 118.48,-186 118.48,-180 124.48,-174 130.48,-174"/>
<text xml:space="preserve" text-anchor="middle" x="483.08" y="-319" font-family="Arial" font-size="10.00">Reference branch — CNN1 (shared weights)</text>
</g>
<g id="clust2" class="cluster">
<title>cluster_ref_cnn2</title>
<path fill="none" stroke="#b3b3b3" d="M879.68,-174C879.68,-174 1068.99,-174 1068.99,-174 1074.99,-174 1080.99,-180 1080.99,-186 1080.99,-186 1080.99,-280 1080.99,-280 1080.99,-286 1074.99,-292 1068.99,-292 1068.99,-292 879.68,-292 879.68,-292 873.68,-292 867.68,-286 867.68,-280 867.68,-280 867.68,-186 867.68,-186 867.68,-180 873.68,-174 879.68,-174"/>
<text xml:space="preserve" text-anchor="middle" x="974.34" y="-279" font-family="Arial" font-size="10.00">Reference branch — CNN2 (shared weights)</text>
</g>
<g id="clust3" class="cluster">
<title>cluster_dist</title>
<path fill="none" stroke="#b3b3b3" d="M130.48,-8C130.48,-8 835.68,-8 835.68,-8 841.68,-8 847.68,-14 847.68,-20 847.68,-20 847.68,-154 847.68,-154 847.68,-160 841.68,-166 835.68,-166 835.68,-166 130.48,-166 130.48,-166 124.48,-166 118.48,-160 118.48,-154 118.48,-154 118.48,-20 118.48,-20 118.48,-14 124.48,-8 130.48,-8"/>
<text xml:space="preserve" text-anchor="middle" x="483.08" y="-153" font-family="Arial" font-size="10.00">Distorted branch — CNN1 (shared weights)</text>
</g>
<g id="clust4" class="cluster">
<title>cluster_dist_cnn2</title>
<path fill="none" stroke="#b3b3b3" d="M882.74,-48C882.74,-48 1065.93,-48 1065.93,-48 1071.93,-48 1077.93,-54 1077.93,-60 1077.93,-60 1077.93,-154 1077.93,-154 1077.93,-160 1071.93,-166 1065.93,-166 1065.93,-166 882.74,-166 882.74,-166 876.74,-166 870.74,-160 870.74,-154 870.74,-154 870.74,-60 870.74,-60 870.74,-54 876.74,-48 882.74,-48"/>
<text xml:space="preserve" text-anchor="middle" x="974.34" y="-153" font-family="Arial" font-size="10.00">Distorted branch — CNN2 (shared weights)</text>
</g>
<g id="clust5" class="cluster">
<title>cluster_cnn3</title>
<path fill="none" stroke="#666666" d="M1481.48,-119C1481.48,-119 2258.52,-119 2258.52,-119 2264.52,-119 2270.52,-125 2270.52,-131 2270.52,-131 2270.52,-225 2270.52,-225 2270.52,-231 2264.52,-237 2258.52,-237 2258.52,-237 1481.48,-237 1481.48,-237 1475.48,-237 1469.48,-231 1469.48,-225 1469.48,-225 1469.48,-131 1469.48,-131 1469.48,-125 1475.48,-119 1481.48,-119"/>
<text xml:space="preserve" text-anchor="middle" x="1870" y="-224" font-family="Arial" font-size="10.00">CNN3</text>
</g>
<g id="clust6" class="cluster">
<title>cluster_se</title>
<path fill="none" stroke="#999999" d="M1588.51,-133C1588.51,-133 2250.52,-133 2250.52,-133 2256.52,-133 2262.52,-139 2262.52,-145 2262.52,-145 2262.52,-179 2262.52,-179 2262.52,-185 2256.52,-191 2250.52,-191 2250.52,-191 1588.51,-191 1588.51,-191 1582.51,-191 1576.51,-185 1576.51,-179 1576.51,-179 1576.51,-145 1576.51,-145 1576.51,-139 1582.51,-133 1588.51,-133"/>
</g>
<g id="clust7" class="cluster">
<title>cluster_mlp</title>
<path fill="none" stroke="#666666" d="M2536.03,-114C2536.03,-114 2785.02,-114 2785.02,-114 2791.02,-114 2797.02,-120 2797.02,-126 2797.02,-126 2797.02,-220 2797.02,-220 2797.02,-226 2791.02,-232 2785.02,-232 2785.02,-232 2536.03,-232 2536.03,-232 2530.03,-232 2524.03,-226 2524.03,-220 2524.03,-220 2524.03,-126 2524.03,-126 2524.03,-120 2530.03,-114 2536.03,-114"/>
<text xml:space="preserve" text-anchor="middle" x="2660.53" y="-219" font-family="Arial" font-size="10.00">Regressor</text>
</g>
<!-- in_ref -->
<g id="node1" class="node">
<title>in_ref</title>
<polygon fill="none" stroke="black" points="0,-223 0,-263 90.48,-263 90.48,-223 0,-223"/>
<text xml:space="preserve" text-anchor="middle" x="45.24" y="-250" font-family="Arial" font-size="10.00">Reference frame</text>
<polyline fill="none" stroke="black" points="0,-243 90.48,-243"/>
<text xml:space="preserve" text-anchor="middle" x="45.24" y="-230" font-family="Arial" font-size="10.00">[B×N×H×W]</text>
</g>
<!-- b1r -->
<g id="node3" class="node">
<title>b1r</title>
<polygon fill="none" stroke="black" points="126.48,-183 126.48,-303 197.51,-303 197.51,-183 126.48,-183"/>
<text xml:space="preserve" text-anchor="middle" x="161.99" y="-290" font-family="Arial" font-size="10.00">Block 1</text>
<polyline fill="none" stroke="black" points="126.48,-283 197.51,-283"/>
<text xml:space="preserve" text-anchor="middle" x="161.99" y="-270" font-family="Arial" font-size="10.00">3D Conv</text>
<polyline fill="none" stroke="black" points="126.48,-263 197.51,-263"/>
<text xml:space="preserve" text-anchor="middle" x="161.99" y="-250" font-family="Arial" font-size="10.00">Group norm</text>
<polyline fill="none" stroke="black" points="126.48,-243 197.51,-243"/>
<text xml:space="preserve" text-anchor="middle" x="161.99" y="-230" font-family="Arial" font-size="10.00">Leaky ReLU</text>
<polyline fill="none" stroke="black" points="126.48,-223 197.51,-223"/>
<text xml:space="preserve" text-anchor="middle" x="161.99" y="-210" font-family="Arial" font-size="10.00">Dropout</text>
<polyline fill="none" stroke="black" points="126.48,-203 197.51,-203"/>
<text xml:space="preserve" text-anchor="middle" x="161.99" y="-190" font-family="Arial" font-size="10.00">MaxPool</text>
</g>
<!-- in_ref&#45;&gt;b1r -->
<g id="edge16" class="edge">
<title>in_ref-&gt;b1r</title>
<path fill="none" stroke="black" d="M90.93,-243C98.8,-243 107,-243 114.9,-243"/>
<polygon fill="black" stroke="black" points="114.68,-246.5 124.68,-243 114.68,-239.5 114.68,-246.5"/>
</g>
<!-- in_dist -->
<g id="node2" class="node">
<title>in_dist</title>
<polygon fill="none" stroke="black" points="3.06,-57 3.06,-97 87.42,-97 87.42,-57 3.06,-57"/>
<text xml:space="preserve" text-anchor="middle" x="45.24" y="-84" font-family="Arial" font-size="10.00">Distorted frame</text>
<polyline fill="none" stroke="black" points="3.06,-77 87.42,-77"/>
<text xml:space="preserve" text-anchor="middle" x="45.24" y="-64" font-family="Arial" font-size="10.00">[B×N×H×W]</text>
</g>
<!-- b1d -->
<g id="node11" class="node">
<title>b1d</title>
<polygon fill="none" stroke="black" points="126.48,-17 126.48,-137 197.51,-137 197.51,-17 126.48,-17"/>
<text xml:space="preserve" text-anchor="middle" x="161.99" y="-124" font-family="Arial" font-size="10.00">Block 1</text>
<polyline fill="none" stroke="black" points="126.48,-117 197.51,-117"/>
<text xml:space="preserve" text-anchor="middle" x="161.99" y="-104" font-family="Arial" font-size="10.00">3D Conv</text>
<polyline fill="none" stroke="black" points="126.48,-97 197.51,-97"/>
<text xml:space="preserve" text-anchor="middle" x="161.99" y="-84" font-family="Arial" font-size="10.00">Group norm</text>
<polyline fill="none" stroke="black" points="126.48,-77 197.51,-77"/>
<text xml:space="preserve" text-anchor="middle" x="161.99" y="-64" font-family="Arial" font-size="10.00">Leaky ReLU</text>
<polyline fill="none" stroke="black" points="126.48,-57 197.51,-57"/>
<text xml:space="preserve" text-anchor="middle" x="161.99" y="-44" font-family="Arial" font-size="10.00">Dropout</text>
<polyline fill="none" stroke="black" points="126.48,-37 197.51,-37"/>
<text xml:space="preserve" text-anchor="middle" x="161.99" y="-24" font-family="Arial" font-size="10.00">MaxPool</text>
</g>
<!-- in_dist&#45;&gt;b1d -->
<g id="edge17" class="edge">
<title>in_dist-&gt;b1d</title>
<path fill="none" stroke="black" d="M87.67,-77C96.42,-77 105.7,-77 114.62,-77"/>
<polygon fill="black" stroke="black" points="114.54,-80.5 124.54,-77 114.54,-73.5 114.54,-80.5"/>
</g>
<!-- b2r -->
<g id="node4" class="node">
<title>b2r</title>
<polygon fill="none" stroke="black" points="233.51,-183 233.51,-303 304.54,-303 304.54,-183 233.51,-183"/>
<text xml:space="preserve" text-anchor="middle" x="269.02" y="-290" font-family="Arial" font-size="10.00">Block 2</text>
<polyline fill="none" stroke="black" points="233.51,-283 304.54,-283"/>
<text xml:space="preserve" text-anchor="middle" x="269.02" y="-270" font-family="Arial" font-size="10.00">3D Conv</text>
<polyline fill="none" stroke="black" points="233.51,-263 304.54,-263"/>
<text xml:space="preserve" text-anchor="middle" x="269.02" y="-250" font-family="Arial" font-size="10.00">Group norm</text>
<polyline fill="none" stroke="black" points="233.51,-243 304.54,-243"/>
<text xml:space="preserve" text-anchor="middle" x="269.02" y="-230" font-family="Arial" font-size="10.00">Leaky ReLU</text>
<polyline fill="none" stroke="black" points="233.51,-223 304.54,-223"/>
<text xml:space="preserve" text-anchor="middle" x="269.02" y="-210" font-family="Arial" font-size="10.00">Dropout</text>
<polyline fill="none" stroke="black" points="233.51,-203 304.54,-203"/>
<text xml:space="preserve" text-anchor="middle" x="269.02" y="-190" font-family="Arial" font-size="10.00">MaxPool</text>
</g>
<!-- b1r&#45;&gt;b2r -->
<g id="edge1" class="edge">
<title>b1r-&gt;b2r</title>
<path fill="none" stroke="black" d="M197.97,-243C205.58,-243 213.76,-243 221.74,-243"/>
<polygon fill="black" stroke="black" points="221.69,-246.5 231.69,-243 221.69,-239.5 221.69,-246.5"/>
</g>
<!-- b3r -->
<g id="node5" class="node">
<title>b3r</title>
<polygon fill="none" stroke="black" points="340.54,-183 340.54,-303 411.57,-303 411.57,-183 340.54,-183"/>
<text xml:space="preserve" text-anchor="middle" x="376.05" y="-290" font-family="Arial" font-size="10.00">Block 3</text>
<polyline fill="none" stroke="black" points="340.54,-283 411.57,-283"/>
<text xml:space="preserve" text-anchor="middle" x="376.05" y="-270" font-family="Arial" font-size="10.00">3D Conv</text>
<polyline fill="none" stroke="black" points="340.54,-263 411.57,-263"/>
<text xml:space="preserve" text-anchor="middle" x="376.05" y="-250" font-family="Arial" font-size="10.00">Group norm</text>
<polyline fill="none" stroke="black" points="340.54,-243 411.57,-243"/>
<text xml:space="preserve" text-anchor="middle" x="376.05" y="-230" font-family="Arial" font-size="10.00">Leaky ReLU</text>
<polyline fill="none" stroke="black" points="340.54,-223 411.57,-223"/>
<text xml:space="preserve" text-anchor="middle" x="376.05" y="-210" font-family="Arial" font-size="10.00">Dropout</text>
<polyline fill="none" stroke="black" points="340.54,-203 411.57,-203"/>
<text xml:space="preserve" text-anchor="middle" x="376.05" y="-190" font-family="Arial" font-size="10.00">MaxPool</text>
</g>
<!-- b2r&#45;&gt;b3r -->
<g id="edge2" class="edge">
<title>b2r-&gt;b3r</title>
<path fill="none" stroke="black" d="M304.99,-243C312.61,-243 320.79,-243 328.77,-243"/>
<polygon fill="black" stroke="black" points="328.72,-246.5 338.72,-243 328.72,-239.5 328.72,-246.5"/>
</g>
<!-- b4r -->
<g id="node6" class="node">
<title>b4r</title>
<polygon fill="none" stroke="black" points="447.57,-183 447.57,-303 518.59,-303 518.59,-183 447.57,-183"/>
<text xml:space="preserve" text-anchor="middle" x="483.08" y="-290" font-family="Arial" font-size="10.00">Block 4</text>
<polyline fill="none" stroke="black" points="447.57,-283 518.59,-283"/>
<text xml:space="preserve" text-anchor="middle" x="483.08" y="-270" font-family="Arial" font-size="10.00">3D Conv</text>
<polyline fill="none" stroke="black" points="447.57,-263 518.59,-263"/>
<text xml:space="preserve" text-anchor="middle" x="483.08" y="-250" font-family="Arial" font-size="10.00">Group norm</text>
<polyline fill="none" stroke="black" points="447.57,-243 518.59,-243"/>
<text xml:space="preserve" text-anchor="middle" x="483.08" y="-230" font-family="Arial" font-size="10.00">Leaky ReLU</text>
<polyline fill="none" stroke="black" points="447.57,-223 518.59,-223"/>
<text xml:space="preserve" text-anchor="middle" x="483.08" y="-210" font-family="Arial" font-size="10.00">Dropout</text>
<polyline fill="none" stroke="black" points="447.57,-203 518.59,-203"/>
<text xml:space="preserve" text-anchor="middle" x="483.08" y="-190" font-family="Arial" font-size="10.00">MaxPool</text>
</g>
<!-- b3r&#45;&gt;b4r -->
<g id="edge3" class="edge">
<title>b3r-&gt;b4r</title>
<path fill="none" stroke="black" d="M412.02,-243C419.64,-243 427.82,-243 435.8,-243"/>
<polygon fill="black" stroke="black" points="435.75,-246.5 445.75,-243 435.75,-239.5 435.75,-246.5"/>
</g>
<!-- b5r -->
<g id="node7" class="node">
<title>b5r</title>
<polygon fill="none" stroke="black" points="554.59,-183 554.59,-303 625.62,-303 625.62,-183 554.59,-183"/>
<text xml:space="preserve" text-anchor="middle" x="590.11" y="-290" font-family="Arial" font-size="10.00">Block 5</text>
<polyline fill="none" stroke="black" points="554.59,-283 625.62,-283"/>
<text xml:space="preserve" text-anchor="middle" x="590.11" y="-270" font-family="Arial" font-size="10.00">3D Conv</text>
<polyline fill="none" stroke="black" points="554.59,-263 625.62,-263"/>
<text xml:space="preserve" text-anchor="middle" x="590.11" y="-250" font-family="Arial" font-size="10.00">Group norm</text>
<polyline fill="none" stroke="black" points="554.59,-243 625.62,-243"/>
<text xml:space="preserve" text-anchor="middle" x="590.11" y="-230" font-family="Arial" font-size="10.00">Leaky ReLU</text>
<polyline fill="none" stroke="black" points="554.59,-223 625.62,-223"/>
<text xml:space="preserve" text-anchor="middle" x="590.11" y="-210" font-family="Arial" font-size="10.00">Dropout</text>
<polyline fill="none" stroke="black" points="554.59,-203 625.62,-203"/>
<text xml:space="preserve" text-anchor="middle" x="590.11" y="-190" font-family="Arial" font-size="10.00">MaxPool</text>
</g>
<!-- b4r&#45;&gt;b5r -->
<g id="edge4" class="edge">
<title>b4r-&gt;b5r</title>
<path fill="none" stroke="black" d="M519.05,-243C526.67,-243 534.85,-243 542.82,-243"/>
<polygon fill="black" stroke="black" points="542.78,-246.5 552.78,-243 542.78,-239.5 542.78,-246.5"/>
</g>
<!-- b6r -->
<g id="node8" class="node">
<title>b6r</title>
<polygon fill="none" stroke="black" points="661.62,-183 661.62,-303 732.65,-303 732.65,-183 661.62,-183"/>
<text xml:space="preserve" text-anchor="middle" x="697.14" y="-290" font-family="Arial" font-size="10.00">Block 6</text>
<polyline fill="none" stroke="black" points="661.62,-283 732.65,-283"/>
<text xml:space="preserve" text-anchor="middle" x="697.14" y="-270" font-family="Arial" font-size="10.00">3D Conv</text>
<polyline fill="none" stroke="black" points="661.62,-263 732.65,-263"/>
<text xml:space="preserve" text-anchor="middle" x="697.14" y="-250" font-family="Arial" font-size="10.00">Group norm</text>
<polyline fill="none" stroke="black" points="661.62,-243 732.65,-243"/>
<text xml:space="preserve" text-anchor="middle" x="697.14" y="-230" font-family="Arial" font-size="10.00">Leaky ReLU</text>
<polyline fill="none" stroke="black" points="661.62,-223 732.65,-223"/>
<text xml:space="preserve" text-anchor="middle" x="697.14" y="-210" font-family="Arial" font-size="10.00">Dropout</text>
<polyline fill="none" stroke="black" points="661.62,-203 732.65,-203"/>
<text xml:space="preserve" text-anchor="middle" x="697.14" y="-190" font-family="Arial" font-size="10.00">MaxPool</text>
</g>
<!-- b5r&#45;&gt;b6r -->
<g id="edge5" class="edge">
<title>b5r-&gt;b6r</title>
<path fill="none" stroke="black" d="M626.08,-243C633.7,-243 641.87,-243 649.85,-243"/>
<polygon fill="black" stroke="black" points="649.8,-246.5 659.8,-243 649.8,-239.5 649.8,-246.5"/>
</g>
<!-- b7r -->
<g id="node9" class="node">
<title>b7r</title>
<polygon fill="none" stroke="black" points="768.65,-183 768.65,-303 839.68,-303 839.68,-183 768.65,-183"/>
<text xml:space="preserve" text-anchor="middle" x="804.17" y="-290" font-family="Arial" font-size="10.00">Block 7</text>
<polyline fill="none" stroke="black" points="768.65,-283 839.68,-283"/>
<text xml:space="preserve" text-anchor="middle" x="804.17" y="-270" font-family="Arial" font-size="10.00">3D Conv</text>
<polyline fill="none" stroke="black" points="768.65,-263 839.68,-263"/>
<text xml:space="preserve" text-anchor="middle" x="804.17" y="-250" font-family="Arial" font-size="10.00">Group norm</text>
<polyline fill="none" stroke="black" points="768.65,-243 839.68,-243"/>
<text xml:space="preserve" text-anchor="middle" x="804.17" y="-230" font-family="Arial" font-size="10.00">Leaky ReLU</text>
<polyline fill="none" stroke="black" points="768.65,-223 839.68,-223"/>
<text xml:space="preserve" text-anchor="middle" x="804.17" y="-210" font-family="Arial" font-size="10.00">Dropout</text>
<polyline fill="none" stroke="black" points="768.65,-203 839.68,-203"/>
<text xml:space="preserve" text-anchor="middle" x="804.17" y="-190" font-family="Arial" font-size="10.00">MaxPool</text>
</g>
<!-- b6r&#45;&gt;b7r -->
<g id="edge6" class="edge">
<title>b6r-&gt;b7r</title>
<path fill="none" stroke="black" d="M733.11,-243C740.73,-243 748.9,-243 756.88,-243"/>
<polygon fill="black" stroke="black" points="756.83,-246.5 766.83,-243 756.83,-239.5 756.83,-246.5"/>
</g>
<!-- c2r -->
<g id="node10" class="node">
<title>c2r</title>
<polygon fill="none" stroke="black" points="938.32,-183 938.32,-263 1009.35,-263 1009.35,-183 938.32,-183"/>
<text xml:space="preserve" text-anchor="middle" x="973.84" y="-250" font-family="Arial" font-size="10.00">3D Conv</text>
<polyline fill="none" stroke="black" points="938.32,-243 1009.35,-243"/>
<text xml:space="preserve" text-anchor="middle" x="973.84" y="-230" font-family="Arial" font-size="10.00">Group norm</text>
<polyline fill="none" stroke="black" points="938.32,-223 1009.35,-223"/>
<text xml:space="preserve" text-anchor="middle" x="973.84" y="-210" font-family="Arial" font-size="10.00">Leaky ReLU</text>
<polyline fill="none" stroke="black" points="938.32,-203 1009.35,-203"/>
<text xml:space="preserve" text-anchor="middle" x="973.84" y="-190" font-family="Arial" font-size="10.00">Dropout</text>
</g>
<!-- b7r&#45;&gt;c2r -->
<g id="edge18" class="edge">
<title>b7r-&gt;c2r</title>
<path fill="none" stroke="black" d="M839.91,-238.86C865,-235.86 899.16,-231.79 926.57,-228.52"/>
<polygon fill="black" stroke="black" points="926.83,-232.01 936.35,-227.35 926.01,-225.06 926.83,-232.01"/>
</g>
<!-- absdiff -->
<g id="node19" class="node">
<title>absdiff</title>
<polygon fill="none" stroke="black" points="1195.4,-186 1108.99,-168 1195.4,-150 1281.82,-168 1195.4,-186"/>
<text xml:space="preserve" text-anchor="middle" x="1195.4" y="-165" font-family="Arial" font-size="10.00">Absolute difference</text>
</g>
<!-- c2r&#45;&gt;absdiff -->
<g id="edge19" class="edge">
<title>c2r-&gt;absdiff</title>
<path fill="none" stroke="black" d="M1009.63,-214.29C1045.66,-205.26 1102.34,-191.06 1143.43,-180.77"/>
<polygon fill="black" stroke="black" points="1144.25,-184.17 1153.1,-178.35 1142.55,-177.38 1144.25,-184.17"/>
</g>
<!-- concat -->
<g id="node20" class="node">
<title>concat</title>
<polygon fill="none" stroke="black" points="1379.65,-186 1317.82,-168 1379.65,-150 1441.48,-168 1379.65,-186"/>
<text xml:space="preserve" text-anchor="middle" x="1379.65" y="-165" font-family="Arial" font-size="10.00">Concatenate</text>
</g>
<!-- c2r&#45;&gt;concat -->
<g id="edge22" class="edge">
<title>c2r-&gt;concat</title>
<path fill="none" stroke="black" d="M1009.64,-221.87C1066.85,-219.57 1184.17,-212.91 1281.82,-195 1300.68,-191.54 1321.2,-186.07 1338.47,-180.96"/>
<polygon fill="black" stroke="black" points="1339.3,-184.37 1347.86,-178.12 1337.27,-177.67 1339.3,-184.37"/>
</g>
<!-- b2d -->
<g id="node12" class="node">
<title>b2d</title>
<polygon fill="none" stroke="black" points="233.51,-17 233.51,-137 304.54,-137 304.54,-17 233.51,-17"/>
<text xml:space="preserve" text-anchor="middle" x="269.02" y="-124" font-family="Arial" font-size="10.00">Block 2</text>
<polyline fill="none" stroke="black" points="233.51,-117 304.54,-117"/>
<text xml:space="preserve" text-anchor="middle" x="269.02" y="-104" font-family="Arial" font-size="10.00">3D Conv</text>
<polyline fill="none" stroke="black" points="233.51,-97 304.54,-97"/>
<text xml:space="preserve" text-anchor="middle" x="269.02" y="-84" font-family="Arial" font-size="10.00">Group norm</text>
<polyline fill="none" stroke="black" points="233.51,-77 304.54,-77"/>
<text xml:space="preserve" text-anchor="middle" x="269.02" y="-64" font-family="Arial" font-size="10.00">Leaky ReLU</text>
<polyline fill="none" stroke="black" points="233.51,-57 304.54,-57"/>
<text xml:space="preserve" text-anchor="middle" x="269.02" y="-44" font-family="Arial" font-size="10.00">Dropout</text>
<polyline fill="none" stroke="black" points="233.51,-37 304.54,-37"/>
<text xml:space="preserve" text-anchor="middle" x="269.02" y="-24" font-family="Arial" font-size="10.00">MaxPool</text>
</g>
<!-- b1d&#45;&gt;b2d -->
<g id="edge7" class="edge">
<title>b1d-&gt;b2d</title>
<path fill="none" stroke="black" d="M197.97,-77C205.58,-77 213.76,-77 221.74,-77"/>
<polygon fill="black" stroke="black" points="221.69,-80.5 231.69,-77 221.69,-73.5 221.69,-80.5"/>
</g>
<!-- b3d -->
<g id="node13" class="node">
<title>b3d</title>
<polygon fill="none" stroke="black" points="340.54,-17 340.54,-137 411.57,-137 411.57,-17 340.54,-17"/>
<text xml:space="preserve" text-anchor="middle" x="376.05" y="-124" font-family="Arial" font-size="10.00">Block 3</text>
<polyline fill="none" stroke="black" points="340.54,-117 411.57,-117"/>
<text xml:space="preserve" text-anchor="middle" x="376.05" y="-104" font-family="Arial" font-size="10.00">3D Conv</text>
<polyline fill="none" stroke="black" points="340.54,-97 411.57,-97"/>
<text xml:space="preserve" text-anchor="middle" x="376.05" y="-84" font-family="Arial" font-size="10.00">Group norm</text>
<polyline fill="none" stroke="black" points="340.54,-77 411.57,-77"/>
<text xml:space="preserve" text-anchor="middle" x="376.05" y="-64" font-family="Arial" font-size="10.00">Leaky ReLU</text>
<polyline fill="none" stroke="black" points="340.54,-57 411.57,-57"/>
<text xml:space="preserve" text-anchor="middle" x="376.05" y="-44" font-family="Arial" font-size="10.00">Dropout</text>
<polyline fill="none" stroke="black" points="340.54,-37 411.57,-37"/>
<text xml:space="preserve" text-anchor="middle" x="376.05" y="-24" font-family="Arial" font-size="10.00">MaxPool</text>
</g>
<!-- b2d&#45;&gt;b3d -->
<g id="edge8" class="edge">
<title>b2d-&gt;b3d</title>
<path fill="none" stroke="black" d="M304.99,-77C312.61,-77 320.79,-77 328.77,-77"/>
<polygon fill="black" stroke="black" points="328.72,-80.5 338.72,-77 328.72,-73.5 328.72,-80.5"/>
</g>
<!-- b4d -->
<g id="node14" class="node">
<title>b4d</title>
<polygon fill="none" stroke="black" points="447.57,-17 447.57,-137 518.59,-137 518.59,-17 447.57,-17"/>
<text xml:space="preserve" text-anchor="middle" x="483.08" y="-124" font-family="Arial" font-size="10.00">Block 4</text>
<polyline fill="none" stroke="black" points="447.57,-117 518.59,-117"/>
<text xml:space="preserve" text-anchor="middle" x="483.08" y="-104" font-family="Arial" font-size="10.00">3D Conv</text>
<polyline fill="none" stroke="black" points="447.57,-97 518.59,-97"/>
<text xml:space="preserve" text-anchor="middle" x="483.08" y="-84" font-family="Arial" font-size="10.00">Group norm</text>
<polyline fill="none" stroke="black" points="447.57,-77 518.59,-77"/>
<text xml:space="preserve" text-anchor="middle" x="483.08" y="-64" font-family="Arial" font-size="10.00">Leaky ReLU</text>
<polyline fill="none" stroke="black" points="447.57,-57 518.59,-57"/>
<text xml:space="preserve" text-anchor="middle" x="483.08" y="-44" font-family="Arial" font-size="10.00">Dropout</text>
<polyline fill="none" stroke="black" points="447.57,-37 518.59,-37"/>
<text xml:space="preserve" text-anchor="middle" x="483.08" y="-24" font-family="Arial" font-size="10.00">MaxPool</text>
</g>
<!-- b3d&#45;&gt;b4d -->
<g id="edge9" class="edge">
<title>b3d-&gt;b4d</title>
<path fill="none" stroke="black" d="M412.02,-77C419.64,-77 427.82,-77 435.8,-77"/>
<polygon fill="black" stroke="black" points="435.75,-80.5 445.75,-77 435.75,-73.5 435.75,-80.5"/>
</g>
<!-- b5d -->
<g id="node15" class="node">
<title>b5d</title>
<polygon fill="none" stroke="black" points="554.59,-17 554.59,-137 625.62,-137 625.62,-17 554.59,-17"/>
<text xml:space="preserve" text-anchor="middle" x="590.11" y="-124" font-family="Arial" font-size="10.00">Block 5</text>
<polyline fill="none" stroke="black" points="554.59,-117 625.62,-117"/>
<text xml:space="preserve" text-anchor="middle" x="590.11" y="-104" font-family="Arial" font-size="10.00">3D Conv</text>
<polyline fill="none" stroke="black" points="554.59,-97 625.62,-97"/>
<text xml:space="preserve" text-anchor="middle" x="590.11" y="-84" font-family="Arial" font-size="10.00">Group norm</text>
<polyline fill="none" stroke="black" points="554.59,-77 625.62,-77"/>
<text xml:space="preserve" text-anchor="middle" x="590.11" y="-64" font-family="Arial" font-size="10.00">Leaky ReLU</text>
<polyline fill="none" stroke="black" points="554.59,-57 625.62,-57"/>
<text xml:space="preserve" text-anchor="middle" x="590.11" y="-44" font-family="Arial" font-size="10.00">Dropout</text>
<polyline fill="none" stroke="black" points="554.59,-37 625.62,-37"/>
<text xml:space="preserve" text-anchor="middle" x="590.11" y="-24" font-family="Arial" font-size="10.00">MaxPool</text>
</g>
<!-- b4d&#45;&gt;b5d -->
<g id="edge10" class="edge">
<title>b4d-&gt;b5d</title>
<path fill="none" stroke="black" d="M519.05,-77C526.67,-77 534.85,-77 542.82,-77"/>
<polygon fill="black" stroke="black" points="542.78,-80.5 552.78,-77 542.78,-73.5 542.78,-80.5"/>
</g>
<!-- b6d -->
<g id="node16" class="node">
<title>b6d</title>
<polygon fill="none" stroke="black" points="661.62,-17 661.62,-137 732.65,-137 732.65,-17 661.62,-17"/>
<text xml:space="preserve" text-anchor="middle" x="697.14" y="-124" font-family="Arial" font-size="10.00">Block 6</text>
<polyline fill="none" stroke="black" points="661.62,-117 732.65,-117"/>
<text xml:space="preserve" text-anchor="middle" x="697.14" y="-104" font-family="Arial" font-size="10.00">3D Conv</text>
<polyline fill="none" stroke="black" points="661.62,-97 732.65,-97"/>
<text xml:space="preserve" text-anchor="middle" x="697.14" y="-84" font-family="Arial" font-size="10.00">Group norm</text>
<polyline fill="none" stroke="black" points="661.62,-77 732.65,-77"/>
<text xml:space="preserve" text-anchor="middle" x="697.14" y="-64" font-family="Arial" font-size="10.00">Leaky ReLU</text>
<polyline fill="none" stroke="black" points="661.62,-57 732.65,-57"/>
<text xml:space="preserve" text-anchor="middle" x="697.14" y="-44" font-family="Arial" font-size="10.00">Dropout</text>
<polyline fill="none" stroke="black" points="661.62,-37 732.65,-37"/>
<text xml:space="preserve" text-anchor="middle" x="697.14" y="-24" font-family="Arial" font-size="10.00">MaxPool</text>
</g>
<!-- b5d&#45;&gt;b6d -->
<g id="edge11" class="edge">
<title>b5d-&gt;b6d</title>
<path fill="none" stroke="black" d="M626.08,-77C633.7,-77 641.87,-77 649.85,-77"/>
<polygon fill="black" stroke="black" points="649.8,-80.5 659.8,-77 649.8,-73.5 649.8,-80.5"/>
</g>
<!-- b7d -->
<g id="node17" class="node">
<title>b7d</title>
<polygon fill="none" stroke="black" points="768.65,-17 768.65,-137 839.68,-137 839.68,-17 768.65,-17"/>
<text xml:space="preserve" text-anchor="middle" x="804.17" y="-124" font-family="Arial" font-size="10.00">Block 7</text>
<polyline fill="none" stroke="black" points="768.65,-117 839.68,-117"/>
<text xml:space="preserve" text-anchor="middle" x="804.17" y="-104" font-family="Arial" font-size="10.00">3D Conv</text>
<polyline fill="none" stroke="black" points="768.65,-97 839.68,-97"/>
<text xml:space="preserve" text-anchor="middle" x="804.17" y="-84" font-family="Arial" font-size="10.00">Group norm</text>
<polyline fill="none" stroke="black" points="768.65,-77 839.68,-77"/>
<text xml:space="preserve" text-anchor="middle" x="804.17" y="-64" font-family="Arial" font-size="10.00">Leaky ReLU</text>
<polyline fill="none" stroke="black" points="768.65,-57 839.68,-57"/>
<text xml:space="preserve" text-anchor="middle" x="804.17" y="-44" font-family="Arial" font-size="10.00">Dropout</text>
<polyline fill="none" stroke="black" points="768.65,-37 839.68,-37"/>
<text xml:space="preserve" text-anchor="middle" x="804.17" y="-24" font-family="Arial" font-size="10.00">MaxPool</text>
</g>
<!-- b6d&#45;&gt;b7d -->
<g id="edge12" class="edge">
<title>b6d-&gt;b7d</title>
<path fill="none" stroke="black" d="M733.11,-77C740.73,-77 748.9,-77 756.88,-77"/>
<polygon fill="black" stroke="black" points="756.83,-80.5 766.83,-77 756.83,-73.5 756.83,-80.5"/>
</g>
<!-- c2d -->
<g id="node18" class="node">
<title>c2d</title>
<polygon fill="none" stroke="black" points="938.32,-57 938.32,-137 1009.35,-137 1009.35,-57 938.32,-57"/>
<text xml:space="preserve" text-anchor="middle" x="973.84" y="-124" font-family="Arial" font-size="10.00">3D Conv</text>
<polyline fill="none" stroke="black" points="938.32,-117 1009.35,-117"/>
<text xml:space="preserve" text-anchor="middle" x="973.84" y="-104" font-family="Arial" font-size="10.00">Group norm</text>
<polyline fill="none" stroke="black" points="938.32,-97 1009.35,-97"/>
<text xml:space="preserve" text-anchor="middle" x="973.84" y="-84" font-family="Arial" font-size="10.00">Leaky ReLU</text>
<polyline fill="none" stroke="black" points="938.32,-77 1009.35,-77"/>
<text xml:space="preserve" text-anchor="middle" x="973.84" y="-64" font-family="Arial" font-size="10.00">Dropout</text>
</g>
<!-- b7d&#45;&gt;c2d -->
<g id="edge20" class="edge">
<title>b7d-&gt;c2d</title>
<path fill="none" stroke="black" d="M839.91,-81.14C865,-84.14 899.16,-88.21 926.57,-91.48"/>
<polygon fill="black" stroke="black" points="926.01,-94.94 936.35,-92.65 926.83,-87.99 926.01,-94.94"/>
</g>
<!-- c2d&#45;&gt;absdiff -->
<g id="edge21" class="edge">
<title>c2d-&gt;absdiff</title>
<path fill="none" stroke="black" d="M1009.63,-108.25C1047.4,-120.46 1107.86,-140.01 1149.26,-153.4"/>
<polygon fill="black" stroke="black" points="1148.11,-156.71 1158.7,-156.45 1150.26,-150.05 1148.11,-156.71"/>
</g>
<!-- c2d&#45;&gt;concat -->
<g id="edge23" class="edge">
<title>c2d-&gt;concat</title>
<path fill="none" stroke="black" d="M1009.62,-100.5C1066.8,-106.58 1184.08,-120.46 1281.82,-141 1300.45,-144.92 1320.79,-150.4 1337.99,-155.4"/>
<polygon fill="black" stroke="black" points="1336.77,-158.69 1347.35,-158.17 1338.75,-151.97 1336.77,-158.69"/>
</g>
<!-- absdiff&#45;&gt;concat -->
<g id="edge24" class="edge">
<title>absdiff-&gt;concat</title>
<path fill="none" stroke="black" d="M1284.06,-168C1291.01,-168 1297.99,-168 1304.83,-168"/>
<polygon fill="black" stroke="black" points="1304.68,-171.5 1314.68,-168 1304.68,-164.5 1304.68,-171.5"/>
</g>
<!-- c3conv -->
<g id="node21" class="node">
<title>c3conv</title>
<polygon fill="none" stroke="black" points="1477.48,-128 1477.48,-208 1548.51,-208 1548.51,-128 1477.48,-128"/>
<text xml:space="preserve" text-anchor="middle" x="1513" y="-195" font-family="Arial" font-size="10.00">3D Conv</text>
<polyline fill="none" stroke="black" points="1477.48,-188 1548.51,-188"/>
<text xml:space="preserve" text-anchor="middle" x="1513" y="-175" font-family="Arial" font-size="10.00">Group norm</text>
<polyline fill="none" stroke="black" points="1477.48,-168 1548.51,-168"/>
<text xml:space="preserve" text-anchor="middle" x="1513" y="-155" font-family="Arial" font-size="10.00">Leaky ReLU</text>
<polyline fill="none" stroke="black" points="1477.48,-148 1548.51,-148"/>
<text xml:space="preserve" text-anchor="middle" x="1513" y="-135" font-family="Arial" font-size="10.00">Dropout</text>
</g>
<!-- concat&#45;&gt;c3conv -->
<g id="edge25" class="edge">
<title>concat-&gt;c3conv</title>
<path fill="none" stroke="black" d="M1443.24,-168C1450.79,-168 1458.38,-168 1465.63,-168"/>
<polygon fill="black" stroke="black" points="1465.54,-171.5 1475.54,-168 1465.54,-164.5 1465.54,-171.5"/>
</g>
<!-- se_gap -->
<g id="node22" class="node">
<title>se_gap</title>
<polygon fill="none" stroke="black" points="1584.51,-145 1584.51,-181 1692.23,-181 1692.23,-145 1584.51,-145"/>
<text xml:space="preserve" text-anchor="middle" x="1638.37" y="-160" font-family="Arial" font-size="10.00">Global Average Pool</text>
</g>
<!-- c3conv&#45;&gt;se_gap -->
<g id="edge27" class="edge">
<title>c3conv-&gt;se_gap</title>
<path fill="none" stroke="black" d="M1548.69,-166.59C1556.24,-166.29 1564.45,-165.96 1572.74,-165.62"/>
<polygon fill="black" stroke="black" points="1572.67,-169.13 1582.52,-165.22 1572.39,-162.13 1572.67,-169.13"/>
</g>
<!-- se_scale -->
<g id="node25" class="node">
<title>se_scale</title>
<polygon fill="none" stroke="black" points="2137.87,-181 2021.22,-163 2137.87,-145 2254.52,-163 2137.87,-181"/>
<text xml:space="preserve" text-anchor="middle" x="2137.87" y="-160" font-family="Arial" font-size="10.00">Channel-wise multiplication</text>
</g>
<!-- c3conv&#45;&gt;se_scale -->
<g id="edge26" class="edge">
<title>c3conv-&gt;se_scale</title>
<path fill="none" stroke="black" d="M1548.77,-183.2C1557.65,-186.41 1567.29,-189.33 1576.51,-191 1609.58,-197 1915.22,-198.63 1985.22,-192 2016.79,-189.01 2051.56,-182.59 2079.84,-176.55"/>
<polygon fill="black" stroke="black" points="2080.23,-180.05 2089.26,-174.5 2078.74,-173.21 2080.23,-180.05"/>
</g>
<!-- se_fc1 -->
<g id="node23" class="node">
<title>se_fc1</title>
<polygon fill="none" stroke="black" points="1728.23,-142 1728.23,-182 1838.73,-182 1838.73,-142 1728.23,-142"/>
<text xml:space="preserve" text-anchor="middle" x="1783.48" y="-169" font-family="Arial" font-size="10.00">Fully connected layer</text>
<polyline fill="none" stroke="black" points="1728.23,-162 1838.73,-162"/>
<text xml:space="preserve" text-anchor="middle" x="1783.48" y="-149" font-family="Arial" font-size="10.00">ReLU</text>
</g>
<!-- se_gap&#45;&gt;se_fc1 -->
<g id="edge13" class="edge">
<title>se_gap-&gt;se_fc1</title>
<path fill="none" stroke="black" d="M1692.66,-162.63C1700.55,-162.57 1708.75,-162.52 1716.85,-162.46"/>
<polygon fill="black" stroke="black" points="1716.7,-165.96 1726.68,-162.39 1716.65,-158.96 1716.7,-165.96"/>
</g>
<!-- se_fc2 -->
<g id="node24" class="node">
<title>se_fc2</title>
<polygon fill="none" stroke="black" points="1874.73,-142 1874.73,-182 1985.22,-182 1985.22,-142 1874.73,-142"/>
<text xml:space="preserve" text-anchor="middle" x="1929.97" y="-169" font-family="Arial" font-size="10.00">Fully connected layer</text>
<polyline fill="none" stroke="black" points="1874.73,-162 1985.22,-162"/>
<text xml:space="preserve" text-anchor="middle" x="1929.97" y="-149" font-family="Arial" font-size="10.00">Sigmoid</text>
</g>
<!-- se_fc1&#45;&gt;se_fc2 -->
<g id="edge14" class="edge">
<title>se_fc1-&gt;se_fc2</title>
<path fill="none" stroke="black" d="M1839.11,-162C1846.84,-162 1854.86,-162 1862.78,-162"/>
<polygon fill="black" stroke="black" points="1862.76,-165.5 1872.76,-162 1862.76,-158.5 1862.76,-165.5"/>
</g>
<!-- se_fc2&#45;&gt;se_scale -->
<g id="edge15" class="edge">
<title>se_fc2-&gt;se_scale</title>
<path fill="none" stroke="black" d="M1985.61,-162.27C1993.48,-162.3 2001.83,-162.34 2010.42,-162.39"/>
<polygon fill="black" stroke="black" points="2010.29,-165.89 2020.31,-162.43 2010.32,-158.89 2010.29,-165.89"/>
</g>
<!-- gap -->
<g id="node26" class="node">
<title>gap</title>
<polygon fill="none" stroke="black" points="2290.52,-145 2290.52,-181 2406.03,-181 2406.03,-145 2290.52,-145"/>
<text xml:space="preserve" text-anchor="middle" x="2348.28" y="-160" font-family="Arial" font-size="10.00">Adaptive average pool</text>
</g>
<!-- se_scale&#45;&gt;gap -->
<g id="edge28" class="edge">
<title>se_scale-&gt;gap</title>
<path fill="none" stroke="black" d="M2257.68,-163C2264.94,-163 2272.11,-163 2279.03,-163"/>
<polygon fill="black" stroke="black" points="2278.92,-166.5 2288.92,-163 2278.92,-159.5 2278.92,-166.5"/>
</g>
<!-- flat -->
<g id="node27" class="node">
<title>flat</title>
<polygon fill="none" stroke="black" points="2442.03,-145 2442.03,-181 2496.03,-181 2496.03,-145 2442.03,-145"/>
<text xml:space="preserve" text-anchor="middle" x="2469.03" y="-160" font-family="Arial" font-size="10.00">Flatten</text>
</g>
<!-- gap&#45;&gt;flat -->
<g id="edge29" class="edge">
<title>gap-&gt;flat</title>
<path fill="none" stroke="black" d="M2406.22,-163C2414.35,-163 2422.53,-163 2430.17,-163"/>
<polygon fill="black" stroke="black" points="2430.12,-166.5 2440.12,-163 2430.12,-159.5 2430.12,-166.5"/>
</g>
<!-- fc1 -->
<g id="node28" class="node">
<title>fc1</title>
<polygon fill="none" stroke="black" points="2532.03,-123 2532.03,-203 2642.53,-203 2642.53,-123 2532.03,-123"/>
<text xml:space="preserve" text-anchor="middle" x="2587.28" y="-190" font-family="Arial" font-size="10.00">Fully connected layer</text>
<polyline fill="none" stroke="black" points="2532.03,-183 2642.53,-183"/>
<text xml:space="preserve" text-anchor="middle" x="2587.28" y="-170" font-family="Arial" font-size="10.00">Batch norm</text>
<polyline fill="none" stroke="black" points="2532.03,-163 2642.53,-163"/>
<text xml:space="preserve" text-anchor="middle" x="2587.28" y="-150" font-family="Arial" font-size="10.00">Leaky ReLU</text>
<polyline fill="none" stroke="black" points="2532.03,-143 2642.53,-143"/>
<text xml:space="preserve" text-anchor="middle" x="2587.28" y="-130" font-family="Arial" font-size="10.00">Dropout</text>
</g>
<!-- flat&#45;&gt;fc1 -->
<g id="edge30" class="edge">
<title>flat-&gt;fc1</title>
<path fill="none" stroke="black" d="M2496.41,-163C2503.77,-163 2512.11,-163 2520.67,-163"/>
<polygon fill="black" stroke="black" points="2520.47,-166.5 2530.47,-163 2520.47,-159.5 2520.47,-166.5"/>
</g>
<!-- fc2 -->
<g id="node29" class="node">
<title>fc2</title>
<polygon fill="none" stroke="black" points="2678.53,-143 2678.53,-183 2789.02,-183 2789.02,-143 2678.53,-143"/>
<text xml:space="preserve" text-anchor="middle" x="2733.77" y="-170" font-family="Arial" font-size="10.00">Fully connected layer</text>
<polyline fill="none" stroke="black" points="2678.53,-163 2789.02,-163"/>
<text xml:space="preserve" text-anchor="middle" x="2733.77" y="-150" font-family="Arial" font-size="10.00">Sigmoid</text>
</g>
<!-- fc1&#45;&gt;fc2 -->
<g id="edge31" class="edge">
<title>fc1-&gt;fc2</title>
<path fill="none" stroke="black" d="M2642.91,-163C2650.64,-163 2658.66,-163 2666.58,-163"/>
<polygon fill="black" stroke="black" points="2666.56,-166.5 2676.56,-163 2666.56,-159.5 2666.56,-166.5"/>
</g>
<!-- out -->
<g id="node30" class="node">
<title>out</title>
<polygon fill="none" stroke="black" points="2825.02,-145 2825.02,-181 2930.48,-181 2930.48,-145 2825.02,-145"/>
<text xml:space="preserve" text-anchor="middle" x="2877.75" y="-160" font-family="Arial" font-size="10.00">VMAF score ∈ (0,1)</text>
</g>
<!-- fc2&#45;&gt;out -->
<g id="edge32" class="edge">
<title>fc2-&gt;out</title>
<path fill="none" stroke="black" d="M2789.26,-163C2797.23,-163 2805.5,-163 2813.63,-163"/>
<polygon fill="black" stroke="black" points="2813.47,-166.5 2823.46,-163 2813.46,-159.5 2813.47,-166.5"/>
</g>
</g>
</svg>